# xmcd
#
# Track frame offsets:
#	150
#	16265
#	30815
#	41765
#	52115
#	69199
#	85649
#	102149
#	116380
#	129280
#	145630
#	164380
#	175780
#	190930
#
# Disc length: 2773 seconds
#
# Revision: 3
# Processed by: cddbd v1.5.2PL0 Copyright (c) Steve Scherf et al.
# Submitted via: EasyCDDAExtractor 11.5.3.1
#
DISCID=a30ad30e
DTITLE=Birger Steiwer - My Kind Of Country
DYEAR=2004
DGENRE=Country
TTITLE0=The Gambler
TTITLE1=Good Hearted Woman
TTITLE2=Tall Tall Trees
TTITLE3=Your Tattoo
TTITLE4=One Night At A Time
TTITLE5=The Light In Your Eyes
TTITLE6=I'm From The Country
TTITLE7=Amanda
TTITLE8=Blue Clear Sky
TTITLE9=Write This Down
TTITLE10=I Can Still Make Cheyenne
TTITLE11=Two Of A Kind
TTITLE12=My Heart Has A History
TTITLE13=Living On Love
EXTD=
EXTT0=
EXTT1=
EXTT2=
EXTT3=
EXTT4=
EXTT5=
EXTT6=
EXTT7=
EXTT8=
EXTT9=
EXTT10=
EXTT11=
EXTT12=
EXTT13=
PLAYORDER=
